/vscmnt/brussel_pixiu_data/_data_brussel/112/vsc11236/PredSimResults/SUBJ09mtu3D/worker9.mot
version=1
nRows=9
nColumns=50
inDegrees=yes
endheader
                time	         pelvis_tilt	         pelvis_list	     pelvis_rotation	           pelvis_tx	           pelvis_ty	           pelvis_tz	       hip_flexion_r	     hip_adduction_r	      hip_rotation_r	        knee_angle_r	       ankle_angle_r	         mtp_angle_r	       hip_flexion_l	     hip_adduction_l	      hip_rotation_l	        knee_angle_l	       ankle_angle_l	         mtp_angle_l	    lumbar_extension	      lumbar_bending	     lumbar_rotation	 ercspn_r/activation	 intobl_r/activation	 extobl_r/activation	    abd_r/activation	    add_r/activation	hamstrings_r/activation	bifemsh_r/activation	glut_max_r/activation	iliopsoas_r/activation	rect_fem_r/activation	  vasti_r/activation	gastroc_r/activation	 soleus_r/activation	tib_ant_r/activation	 ercspn_l/activation	 intobl_l/activation	 extobl_l/activation	    abd_l/activation	    add_l/activation	hamstrings_l/activation	bifemsh_l/activation	glut_max_l/activation	iliopsoas_l/activation	rect_fem_l/activation	  vasti_l/activation	gastroc_l/activation	 soleus_l/activation	tib_ant_l/activation	
          1.21809307	         -4.57207544	         -1.19239388	          8.25529035	          1.51043540	          0.99008052	         -0.00422606	         27.01854446	         -1.11107533	         -5.07518569	         -1.58442952	          6.10346803	          0.25057341	        -12.23740144	         -2.20327729	          1.59099904	        -10.50734220	          7.58733958	         32.08129138	        -14.28692034	         -0.94801729	         -2.15344789	          0.01000061	          0.17003257	          0.05470907	          0.04297566	          0.10507023	          0.08630919	          0.19869620	          0.05097421	          0.11054093	          0.01212343	          0.01000029	          0.03583189	          0.01447169	          0.22915162	          0.01000057	          0.01000061	          0.02980927	          0.02519724	          0.01000067	          0.04321539	          0.15516288	          0.02092349	          0.01000160	          0.01000045	          0.01000032	          0.31095022	          0.23326826	          0.01001586	
          1.23027400	         -4.52817845	         -1.25232303	          8.22344607	          1.52966096	          0.98795505	         -0.00397450	         26.91165600	         -0.93642504	         -5.09785980	         -3.39406904	          5.62853275	          0.21624610	        -13.11682062	         -2.40745941	          1.16213885	        -10.97288811	          6.63403399	         33.63010054	        -13.88656690	         -0.53865310	         -2.14754886	          0.01000034	          0.14133870	          0.04547663	          0.08979859	          0.08981181	          0.07813661	          0.16516611	          0.10864623	          0.09188655	          0.01007785	          0.01000013	          0.02978517	          0.01203031	          0.27056301	          0.01000057	          0.01202915	          0.02478342	          0.02094509	          0.01125967	          0.04758163	          0.12897929	          0.01741082	          0.01000067	          0.01000033	          0.01000081	          0.28740347	          0.21181463	          0.01000002	
          1.24245493	         -4.47914423	         -1.31966717	          8.15392683	          1.54903518	          0.98619397	         -0.00368566	         26.70912204	         -0.74706671	         -5.08565447	         -5.02746560	          4.99825763	          0.20532587	        -13.80698059	         -2.60651920	          0.69814976	        -11.77915427	          5.53757349	         35.16585435	        -13.47392268	         -0.11214599	         -2.13327184	          0.01000049	          0.11748705	          0.03780221	          0.14804074	          0.09314088	          0.06495128	          0.13729373	          0.15290982	          0.07638021	          0.01000060	          0.01000009	          0.02475881	          0.01000017	          0.31295559	          0.01000280	          0.01000044	          0.02060116	          0.01741051	          0.01678624	          0.03955236	          0.10721411	          0.01447272	          0.01000087	          0.01000042	          0.01000331	          0.25630239	          0.18087496	          0.01000004	
          1.25463586	         -4.42936540	         -1.38527693	          8.04762569	          1.56820445	          0.98507885	         -0.00336540	         26.52767037	         -0.54877078	         -5.04036504	         -6.67718766	          4.40237061	          0.16522033	        -14.19209503	         -2.78802371	          0.20566535	        -13.07899277	          4.29671507	         36.59111170	        -13.08907597	          0.32386740	         -2.10742031	          0.01000176	          0.09766049	          0.03142289	          0.19461460	          0.12572025	          0.05399052	          0.11412479	          0.18287765	          0.06349064	          0.01000186	          0.01000045	          0.02058074	          0.01000035	          0.33105176	          0.05544829	          0.01000027	          0.01712465	          0.01447241	          0.03386101	          0.03287781	          0.08912241	          0.01203042	          0.01000287	          0.01000077	          0.01000076	          0.21305007	          0.15035137	          0.01000006	
          1.26681679	         -4.37933202	         -1.43851347	          7.90453682	          1.58696218	          0.98472975	         -0.00302353	         26.43824846	         -0.35972157	         -4.97547827	         -8.51671702	          4.14289948	          0.13229697	        -14.18609462	         -2.94266376	         -0.31130404	        -15.00783959	          2.98330762	         37.68600399	        -12.75425110	          0.75788715	         -2.06762534	          0.01001269	          0.08117976	          0.02612011	          0.23191815	          0.16919221	          0.04487960	          0.09486573	          0.19998734	          0.05277626	          0.01000142	          0.02408057	          0.01710793	          0.01392526	          0.32384646	          0.07353900	          0.01000023	          0.01423484	          0.01203013	          0.07016558	          0.02732962	          0.07408562	          0.01000030	          0.06694978	          0.01000037	          0.01000020	          0.17709671	          0.12497876	          0.01000011	
          1.27899772	         -4.32957879	         -1.46688157	          7.72367152	          1.60520863	          0.98516187	         -0.00268489	         26.39949183	         -0.19381975	         -4.90597306	        -10.43740190	          4.11170605	          0.10677770	        -13.71857447	         -3.06272849	         -0.86282147	        -17.68782663	          1.70560294	         38.12414985	        -12.47791030	          1.17720233	         -2.01054372	          0.01323237	          0.06748025	          0.02171221	          0.24850089	          0.20139165	          0.03730939	          0.07885675	          0.20292522	          0.04386999	          0.01000131	          0.07059116	          0.01422166	          0.01635560	          0.30755534	          0.09336896	          0.01000019	          0.01183276	          0.01000006	          0.10687518	          0.02271774	          0.06217091	          0.01000006	          0.08818201	          0.01000029	          0.01000008	          0.14721068	          0.10388792	          0.01000009	
          1.29117865	         -4.28015995	         -1.46001804	          7.50248845	          1.62297359	          0.98631430	         -0.00237802	         26.28855358	         -0.05262877	         -4.82089494	        -12.20449761	          4.21391192	          0.09039202	        -12.77081145	         -3.15035102	         -1.45267125	        -21.15481331	          0.49065610	         37.66117165	        -12.25284447	          1.57084175	         -1.93134044	          0.01181519	          0.05609261	          0.01804817	          0.24981342	          0.21474183	          0.03682608	          0.06554939	          0.19521220	          0.03646670	          0.01000129	          0.10259445	          0.01203800	          0.01447434	          0.28563269	          0.08688192	          0.01000014	          0.01000047	          0.01000004	          0.13652345	          0.01888427	          0.07693369	          0.01000004	          0.07330130	          0.01000019	          0.01000003	          0.12236807	          0.08635627	          0.01000007	
          1.30335958	         -4.23085183	         -1.41259238	          7.23835911	          1.64033498	          0.98804454	         -0.00212539	         26.01410511	          0.06605935	         -4.70075862	        -13.65411206	          4.38448326	          0.08341586	        -11.38235611	         -3.21342385	         -2.05806897	        -25.28934812	         -0.86625905	         36.41385381	        -12.06659188	          1.93321351	         -1.82549556	          0.01000066	          0.04662670	          0.01500247	          0.23706869	          0.21368751	          0.04066622	          0.05448773	          0.17307347	          0.03031276	          0.01000058	          0.13196090	          0.01000806	          0.01203189	          0.26724834	          0.07222080	          0.01000049	          0.03571242	          0.01000005	          0.15456771	          0.01741135	          0.06507593	          0.01000006	          0.06093146	          0.01000011	          0.01000002	          0.10171779	          0.07178318	          0.01000397	
          1.31554051	         -4.18253457	         -1.32688780	          6.93321116	          1.65732166	          0.99018826	         -0.00192701	         25.55413003	          0.16616778	         -4.52659882	        -14.73991890	          4.57804852	          0.08407845	         -9.62090759	         -3.26339616	         -2.63716445	        -29.91652077	         -2.41389707	         34.28584298	        -11.91382179	          2.26378373	         -1.69546628	          0.01000273	          0.03875821	          0.01247075	          0.21663987	          0.17762684	          0.04345659	          0.04529279	          0.14386701	          0.02519733	          0.01000060	          0.16473409	          0.01000074	          0.01000161	          0.24935225	          0.06759167	          0.05246049	          0.08220800	          0.01000003	          0.12848376	          0.01447327	          0.05409496	          0.01000005	          0.05064909	          0.01000011	          0.01000002	          0.08455236	          0.05966938	          0.04062481	
